<svg width="37" height="37" viewBox="0 0 37 37" fill="none" xmlns="http://www.w3.org/2000/svg">
<mask id="mask0_1839_16728" style="mask-type:alpha" maskUnits="userSpaceOnUse" x="0" y="0" width="37" height="37">
<rect x="0.5" y="0.5" width="36" height="36" fill="#EEE6FD"/>
</mask>
<g mask="url(#mask0_1839_16728)">
<path d="M9.5 21.5H21.5V18.5H9.5V21.5ZM9.5 17H27.5V14H9.5V17ZM9.5 12.5H27.5V9.5H9.5V12.5ZM3.5 33.5V6.5C3.5 5.675 3.79375 4.96875 4.38125 4.38125C4.96875 3.79375 5.675 3.5 6.5 3.5H30.5C31.325 3.5 32.0312 3.79375 32.6188 4.38125C33.2063 4.96875 33.5 5.675 33.5 6.5V24.5C33.5 25.325 33.2063 26.0312 32.6188 26.6188C32.0312 27.2063 31.325 27.5 30.5 27.5H9.5L3.5 33.5ZM8.225 24.5H30.5V6.5H6.5V26.1875L8.225 24.5Z" fill="white"/>
</g>
</svg>
